name rise49.8558peak67.6521fall70.3087.mot
datacolumns 19
datarows 48
range 6.253310 6.331646
endheader
time	ground_force1_vx	ground_force1_vy	ground_force1_vz	ground_force1_px	ground_force1_py	ground_force1_pz	ground_force2_vx	ground_force2_vy	ground_force2_vz	ground_force2_px	ground_force2_py	ground_force2_pz	ground_torque1_x	ground_torque1_y	ground_torque1_z	ground_torque2_x	ground_torque2_y	ground_torque2_z	
6.253310	-77.446130	559.723565	33.198609	0.089781	0.000000	0.115035	54.424731	404.399441	-13.196494	0.436889	0.000000	-0.083058	0.000000	22.278457	0.000000	0.000000	-0.732297	0.000000	
6.254973	-77.110032	550.377213	32.031601	0.089424	0.000000	0.114690	56.732174	414.028406	-14.264516	0.437446	0.000000	-0.083161	0.000000	21.967177	0.000000	0.000000	-1.213896	0.000000	
6.256641	-76.727007	540.907132	30.863204	0.089095	0.000000	0.114338	59.023929	423.572859	-15.348021	0.437965	0.000000	-0.083263	0.000000	21.648443	0.000000	0.000000	-1.710215	0.000000	
6.258310	-76.295928	531.318712	29.695086	0.088795	0.000000	0.113980	61.295969	433.025807	-16.445273	0.438447	0.000000	-0.083365	0.000000	21.322193	0.000000	0.000000	-2.220365	0.000000	
6.259980	-75.815774	521.617679	28.528914	0.088525	0.000000	0.113617	63.544386	442.380335	-17.554536	0.438890	0.000000	-0.083466	0.000000	20.988378	0.000000	0.000000	-2.743437	0.000000	
6.261648	-75.285634	511.810124	27.366356	0.088285	0.000000	0.113247	65.765367	451.629722	-18.674067	0.439294	0.000000	-0.083566	0.000000	20.646971	0.000000	0.000000	-3.278496	0.000000	
6.263305	-74.704711	501.902533	26.209065	0.088077	0.000000	0.112872	67.955179	460.767553	-19.802105	0.439660	0.000000	-0.083665	0.000000	20.297963	0.000000	0.000000	-3.824578	0.000000	
6.264978	-74.072329	491.901804	25.058676	0.087903	0.000000	0.112490	70.110158	469.787821	-20.936867	0.439986	0.000000	-0.083764	0.000000	19.941362	0.000000	0.000000	-4.380685	0.000000	
6.266644	-73.387932	481.815254	23.916803	0.087762	0.000000	0.112103	72.226699	478.685005	-22.076546	0.440272	0.000000	-0.083862	0.000000	19.577199	0.000000	0.000000	-4.945785	0.000000	
6.268308	-72.651085	471.650611	22.785029	0.087656	0.000000	0.111709	74.301262	487.454131	-23.219312	0.440517	0.000000	-0.083960	0.000000	19.205519	0.000000	0.000000	-5.518815	0.000000	
6.269977	-71.861480	461.415983	21.664905	0.087587	0.000000	0.111310	76.330377	496.090810	-24.363316	0.440722	0.000000	-0.084056	0.000000	18.826391	0.000000	0.000000	-6.098678	0.000000	
6.271644	-71.018928	451.119812	20.557945	0.087555	0.000000	0.110906	78.310658	504.591251	-25.506694	0.440886	0.000000	-0.084152	0.000000	18.439900	0.000000	0.000000	-6.684255	0.000000	
6.273305	-70.123368	440.770796	19.465623	0.087562	0.000000	0.110495	80.238812	512.952263	-26.647582	0.441008	0.000000	-0.084247	0.000000	18.046152	0.000000	0.000000	-7.274401	0.000000	
6.274979	-69.174862	430.377795	18.389377	0.087610	0.000000	0.110078	82.111665	521.171228	-27.784119	0.441088	0.000000	-0.084342	0.000000	17.645274	0.000000	0.000000	-7.867963	0.000000	
6.276640	-68.173602	419.949717	17.330606	0.087699	0.000000	0.109656	83.926173	529.246075	-28.914460	0.441125	0.000000	-0.084436	0.000000	17.237418	0.000000	0.000000	-8.463776	0.000000	
6.278312	-67.119914	409.495381	16.290670	0.087831	0.000000	0.109228	85.679446	537.175239	-30.036793	0.441120	0.000000	-0.084529	0.000000	16.822759	0.000000	0.000000	-9.060682	0.000000	
6.279978	-66.014264	399.023385	15.270899	0.088007	0.000000	0.108793	87.368760	544.957612	-31.149342	0.441072	0.000000	-0.084621	0.000000	16.401502	0.000000	0.000000	-9.657528	0.000000	
6.281643	-64.857268	388.541968	14.272589	0.088230	0.000000	0.108353	88.991579	552.592499	-32.250381	0.440980	0.000000	-0.084712	0.000000	15.973886	0.000000	0.000000	-10.253181	0.000000	
6.283310	-63.649709	378.058896	13.297010	0.088501	0.000000	0.107907	90.545562	560.079570	-33.338246	0.440844	0.000000	-0.084803	0.000000	15.540186	0.000000	0.000000	-10.846531	0.000000	
6.284975	-62.392548	367.581369	12.345403	0.088823	0.000000	0.107454	92.028576	567.418814	-34.411340	0.440665	0.000000	-0.084893	0.000000	15.100720	0.000000	0.000000	-11.436496	0.000000	
6.286642	-61.086943	357.115985	11.418978	0.089196	0.000000	0.106995	93.438704	574.610501	-35.468139	0.440442	0.000000	-0.084982	0.000000	14.655853	0.000000	0.000000	-12.022035	0.000000	
6.288306	-59.734270	346.668747	10.518919	0.089624	0.000000	0.106530	94.774250	581.655145	-36.507202	0.440175	0.000000	-0.085070	0.000000	14.206003	0.000000	0.000000	-12.602144	0.000000	
6.289976	-58.336138	336.245158	9.646366	0.090109	0.000000	0.106058	96.033738	588.553476	-37.527173	0.439864	0.000000	-0.085157	0.000000	13.751638	0.000000	0.000000	-13.175866	0.000000	
6.291639	-56.894406	325.850378	8.802412	0.090654	0.000000	0.105580	97.215918	595.306411	-38.526782	0.439509	0.000000	-0.085243	0.000000	13.293286	0.000000	0.000000	-13.742293	0.000000	
6.293311	-55.411193	315.489473	7.988084	0.091261	0.000000	0.105095	98.319760	601.915032	-39.504853	0.439110	0.000000	-0.085328	0.000000	12.831527	0.000000	0.000000	-14.300567	0.000000	
6.294975	-53.888885	305.167729	7.204324	0.091934	0.000000	0.104602	99.344452	608.380571	-40.460300	0.438667	0.000000	-0.085412	0.000000	12.366993	0.000000	0.000000	-14.849885	0.000000	
6.296641	-52.330129	294.891039	6.451968	0.092676	0.000000	0.104102	100.289395	614.704391	-41.392130	0.438182	0.000000	-0.085496	0.000000	11.900359	0.000000	0.000000	-15.389498	0.000000	
6.298312	-50.737815	284.666315	5.731718	0.093492	0.000000	0.103594	101.154201	620.887972	-42.299444	0.437652	0.000000	-0.085578	0.000000	11.432333	0.000000	0.000000	-15.918713	0.000000	
6.299980	-49.115050	274.501921	5.044115	0.094384	0.000000	0.103078	101.938683	626.932897	-43.181434	0.437081	0.000000	-0.085659	0.000000	10.963643	0.000000	0.000000	-16.436895	0.000000	
6.301647	-47.465113	264.408059	4.389515	0.095359	0.000000	0.102553	102.642853	632.840843	-44.037387	0.436467	0.000000	-0.085739	0.000000	10.495017	0.000000	0.000000	-16.943465	0.000000	
6.303312	-45.791401	254.397081	3.768067	0.096420	0.000000	0.102019	103.266913	638.613561	-44.866677	0.435811	0.000000	-0.085818	0.000000	10.027167	0.000000	0.000000	-17.437903	0.000000	
6.304977	-44.097358	244.483661	3.179694	0.097574	0.000000	0.101476	103.811249	644.252865	-45.668773	0.435114	0.000000	-0.085896	0.000000	9.560765	0.000000	0.000000	-17.919746	0.000000	
6.306645	-42.386398	234.684788	2.624093	0.098827	0.000000	0.100923	104.276425	649.760620	-46.443228	0.434377	0.000000	-0.085972	0.000000	9.096424	0.000000	0.000000	-18.388588	0.000000	
6.308307	-40.661823	225.019515	2.100735	0.100185	0.000000	0.100359	104.663180	655.138719	-47.189688	0.433600	0.000000	-0.086048	0.000000	8.634681	0.000000	0.000000	-18.844080	0.000000	
6.309973	-38.926741	215.508446	1.608890	0.101657	0.000000	0.099783	104.972414	660.389073	-47.907880	0.432784	0.000000	-0.086122	0.000000	8.175979	0.000000	0.000000	-19.285928	0.000000	
6.311646	-37.183989	206.172926	1.147661	0.103251	0.000000	0.099194	105.205188	665.513593	-48.597619	0.431930	0.000000	-0.086195	0.000000	7.720661	0.000000	0.000000	-19.713897	0.000000	
6.313306	-35.436081	197.033942	0.716044	0.104976	0.000000	0.098593	105.362713	670.514171	-49.258801	0.431039	0.000000	-0.086267	0.000000	7.268975	0.000000	0.000000	-20.127801	0.000000	
6.314981	-33.685168	188.110763	0.312995	0.106843	0.000000	0.097977	105.446346	675.392664	-49.891402	0.430112	0.000000	-0.086337	0.000000	6.821081	0.000000	0.000000	-20.527512	0.000000	
6.316647	-31.933047	179.419374	-0.062487	0.108864	0.000000	0.097345	105.457579	680.150881	-50.495477	0.429150	0.000000	-0.086406	0.000000	6.377076	0.000000	0.000000	-20.912951	0.000000	
6.318310	-30.181198	170.970812	-0.411259	0.111053	0.000000	0.096696	105.398035	684.790563	-51.071154	0.428154	0.000000	-0.086474	0.000000	5.937035	0.000000	0.000000	-21.284088	0.000000	
6.319975	-28.430871	162.769511	-0.733943	0.113425	0.000000	0.096028	105.269457	689.313373	-51.618636	0.427125	0.000000	-0.086541	0.000000	5.501057	0.000000	0.000000	-21.640942	0.000000	
6.321639	-26.683225	154.811829	-1.030832	0.115996	0.000000	0.095340	105.073699	693.720883	-52.138193	0.426064	0.000000	-0.086606	0.000000	5.069331	0.000000	0.000000	-21.983578	0.000000	
6.323308	-24.939513	147.084916	-1.301807	0.118787	0.000000	0.094629	104.812722	698.014560	-52.630162	0.424973	0.000000	-0.086670	0.000000	4.642200	0.000000	0.000000	-22.312102	0.000000	
6.324972	-23.201301	139.566119	-1.546291	0.121820	0.000000	0.093894	104.488578	702.195762	-53.094940	0.423853	0.000000	-0.086733	0.000000	4.220238	0.000000	0.000000	-22.626664	0.000000	
6.326639	-21.470727	132.223087	-1.763221	0.125120	0.000000	0.093130	104.103406	706.265725	-53.532985	0.422705	0.000000	-0.086794	0.000000	3.804324	0.000000	0.000000	-22.927448	0.000000	
6.328308	-19.750764	125.014738	-1.951081	0.128716	0.000000	0.092336	103.659423	710.225562	-53.944804	0.421530	0.000000	-0.086854	0.000000	3.395699	0.000000	0.000000	-23.214675	0.000000	
6.329973	-18.045479	117.893177	-2.107972	0.132643	0.000000	0.091508	103.158908	714.076256	-54.330957	0.420330	0.000000	-0.086913	0.000000	2.996017	0.000000	0.000000	-23.488596	0.000000	
6.331646	-16.360255	110.806604	-2.231747	0.136939	0.000000	0.090641	102.604202	717.818660	-54.692048	0.419106	0.000000	-0.086971	0.000000	2.607366	0.000000	0.000000	-23.749491	0.000000	
